<svg xmlns="http://www.w3.org/2000/svg" viewBox="0 0 31 27" shape-rendering="crispEdges">
<rect x="5" y="0" width="1" height="1" fill="#3b4449"/>
<rect x="6" y="0" width="1" height="1" fill="#3b4449"/>
<rect x="5" y="1" width="1" height="1" fill="#4b4f53"/>
<rect x="7" y="0" width="1" height="1" fill="#3b4449"/>
<rect x="6" y="1" width="1" height="1" fill="#494d50"/>
<rect x="4" y="1" width="1" height="1" fill="#b6b9bd"/>
<rect x="7" y="1" width="1" height="1" fill="#4b4f53"/>
<rect x="3" y="1" width="1" height="1" fill="#b4b8bb"/>
<rect x="4" y="2" width="1" height="1" fill="#3c4349"/>
<rect x="3" y="2" width="1" height="1" fill="#3a4348"/>
<rect x="4" y="3" width="1" height="1" fill="#3c4349"/>
<rect x="3" y="3" width="1" height="1" fill="#3a4549"/>
<rect x="4" y="4" width="1" height="1" fill="#3b4348"/>
<rect x="3" y="4" width="1" height="1" fill="#3c4349"/>
<rect x="4" y="5" width="1" height="1" fill="#3b4449"/>
<rect x="3" y="5" width="1" height="1" fill="#3b424a"/>
<rect x="5" y="5" width="1" height="1" fill="#dbe5ef"/>
<rect x="4" y="6" width="1" height="1" fill="#3d444a"/>
<rect x="3" y="6" width="1" height="1" fill="#384146"/>
<rect x="6" y="5" width="1" height="1" fill="#dbe5ef"/>
<rect x="5" y="6" width="1" height="1" fill="#dbe5ef"/>
<rect x="4" y="7" width="1" height="1" fill="#dce4ef"/>
<rect x="3" y="7" width="1" height="1" fill="#dbe5ef"/>
<rect x="7" y="5" width="1" height="1" fill="#dbe5ef"/>
<rect x="6" y="6" width="1" height="1" fill="#dbe5ef"/>
<rect x="5" y="7" width="1" height="1" fill="#dbe5ef"/>
<rect x="4" y="8" width="1" height="1" fill="#dbe5f1"/>
<rect x="2" y="7" width="1" height="1" fill="#3c4548"/>
<rect x="3" y="8" width="1" height="1" fill="#dbe5ee"/>
<rect x="8" y="5" width="1" height="1" fill="#dbe5ef"/>
<rect x="7" y="6" width="1" height="1" fill="#dbe5ef"/>
<rect x="6" y="7" width="1" height="1" fill="#dbe5ef"/>
<rect x="5" y="8" width="1" height="1" fill="#dbe5ef"/>
<rect x="4" y="9" width="1" height="1" fill="#dce4ef"/>
<rect x="1" y="7" width="1" height="1" fill="#3b4449"/>
<rect x="2" y="8" width="1" height="1" fill="#3c4447"/>
<rect x="3" y="9" width="1" height="1" fill="#dbe5ef"/>
<rect x="9" y="5" width="1" height="1" fill="#dbe5ef"/>
<rect x="8" y="6" width="1" height="1" fill="#dbe5ee"/>
<rect x="8" y="4" width="1" height="1" fill="#dbe5ef"/>
<rect x="7" y="7" width="1" height="1" fill="#dbe5ef"/>
<rect x="6" y="8" width="1" height="1" fill="#dce4ef"/>
<rect x="5" y="9" width="1" height="1" fill="#dbe5ee"/>
<rect x="4" y="10" width="1" height="1" fill="#171c20"/>
<rect x="1" y="8" width="1" height="1" fill="#3b444b"/>
<rect x="2" y="9" width="1" height="1" fill="#3b4447"/>
<rect x="3" y="10" width="1" height="1" fill="#17191e"/>
<rect x="10" y="5" width="1" height="1" fill="#181d1f"/>
<rect x="9" y="6" width="1" height="1" fill="#dbe5ef"/>
<rect x="9" y="4" width="1" height="1" fill="#dce6ef"/>
<rect x="8" y="7" width="1" height="1" fill="#dbe5ef"/>
<rect x="8" y="3" width="1" height="1" fill="#dbe4ef"/>
<rect x="7" y="8" width="1" height="1" fill="#dce5ef"/>
<rect x="6" y="9" width="1" height="1" fill="#dce4ef"/>
<rect x="5" y="10" width="1" height="1" fill="#dbe5ef"/>
<rect x="4" y="11" width="1" height="1" fill="#161b1f"/>
<rect x="1" y="9" width="1" height="1" fill="#3b4348"/>
<rect x="2" y="10" width="1" height="1" fill="#3a4348"/>
<rect x="3" y="11" width="1" height="1" fill="#16191e"/>
<rect x="11" y="5" width="1" height="1" fill="#dae4ee"/>
<rect x="10" y="6" width="1" height="1" fill="#181d20"/>
<rect x="10" y="4" width="1" height="1" fill="#3a4147"/>
<rect x="9" y="7" width="1" height="1" fill="#dbe5ef"/>
<rect x="9" y="3" width="1" height="1" fill="#dbe5ee"/>
<rect x="8" y="8" width="1" height="1" fill="#dbe5ef"/>
<rect x="8" y="2" width="1" height="1" fill="#3b4147"/>
<rect x="7" y="9" width="1" height="1" fill="#dce4ef"/>
<rect x="6" y="10" width="1" height="1" fill="#78a0c1"/>
<rect x="5" y="11" width="1" height="1" fill="#dbe5ef"/>
<rect x="4" y="12" width="1" height="1" fill="#dce6f0"/>
<rect x="1" y="10" width="1" height="1" fill="#3b4248"/>
<rect x="2" y="11" width="1" height="1" fill="#3b4346"/>
<rect x="3" y="12" width="1" height="1" fill="#dbe5ef"/>
<rect x="12" y="5" width="1" height="1" fill="#161b1e"/>
<rect x="11" y="6" width="1" height="1" fill="#dae4f0"/>
<rect x="11" y="4" width="1" height="1" fill="#3b4449"/>
<rect x="10" y="7" width="1" height="1" fill="#181d20"/>
<rect x="10" y="3" width="1" height="1" fill="#3b4248"/>
<rect x="9" y="8" width="1" height="1" fill="#dbe4ef"/>
<rect x="9" y="2" width="1" height="1" fill="#3b4449"/>
<rect x="8" y="9" width="1" height="1" fill="#dbe5ef"/>
<rect x="7" y="10" width="1" height="1" fill="#75a1c4"/>
<rect x="6" y="11" width="1" height="1" fill="#78a0c0"/>
<rect x="5" y="12" width="1" height="1" fill="#dce4ef"/>
<rect x="4" y="13" width="1" height="1" fill="#dee8f3"/>
<rect x="1" y="11" width="1" height="1" fill="#3b4346"/>
<rect x="2" y="12" width="1" height="1" fill="#3b4547"/>
<rect x="3" y="13" width="1" height="1" fill="#e1e9f3"/>
<rect x="13" y="5" width="1" height="1" fill="#acb4bd"/>
<rect x="12" y="6" width="1" height="1" fill="#151a1d"/>
<rect x="12" y="4" width="1" height="1" fill="#3b4449"/>
<rect x="11" y="7" width="1" height="1" fill="#d9e3ed"/>
<rect x="11" y="3" width="1" height="1" fill="#3b444b"/>
<rect x="10" y="8" width="1" height="1" fill="#dae3ec"/>
<rect x="9" y="9" width="1" height="1" fill="#dbe5ef"/>
<rect x="8" y="10" width="1" height="1" fill="#dbe5ef"/>
<rect x="7" y="11" width="1" height="1" fill="#749fc2"/>
<rect x="6" y="12" width="1" height="1" fill="#dbe5ef"/>
<rect x="5" y="13" width="1" height="1" fill="#dfe8f2"/>
<rect x="4" y="14" width="1" height="1" fill="#959ea5"/>
<rect x="1" y="12" width="1" height="1" fill="#3c4447"/>
<rect x="2" y="13" width="1" height="1" fill="#394148"/>
<rect x="3" y="14" width="1" height="1" fill="#959ea5"/>
<rect x="14" y="5" width="1" height="1" fill="#171c1f"/>
<rect x="13" y="6" width="1" height="1" fill="#a6b1b7"/>
<rect x="13" y="4" width="1" height="1" fill="#3a4348"/>
<rect x="12" y="7" width="1" height="1" fill="#151a1e"/>
<rect x="12" y="3" width="1" height="1" fill="#3b4248"/>
<rect x="11" y="8" width="1" height="1" fill="#d8e3ee"/>
<rect x="10" y="9" width="1" height="1" fill="#dbe5ef"/>
<rect x="9" y="10" width="1" height="1" fill="#dbe5ef"/>
<rect x="8" y="11" width="1" height="1" fill="#dae5f0"/>
<rect x="7" y="12" width="1" height="1" fill="#dbe5ef"/>
<rect x="6" y="13" width="1" height="1" fill="#dce4f1"/>
<rect x="5" y="14" width="1" height="1" fill="#969fa6"/>
<rect x="4" y="15" width="1" height="1" fill="#3b4248"/>
<rect x="1" y="13" width="1" height="1" fill="#3a4147"/>
<rect x="2" y="14" width="1" height="1" fill="#3c4349"/>
<rect x="3" y="15" width="1" height="1" fill="#394048"/>
<rect x="15" y="5" width="1" height="1" fill="#dbe5f0"/>
<rect x="14" y="6" width="1" height="1" fill="#171c20"/>
<rect x="14" y="4" width="1" height="1" fill="#3b4449"/>
<rect x="13" y="7" width="1" height="1" fill="#a4adb5"/>
<rect x="13" y="3" width="1" height="1" fill="#3c4447"/>
<rect x="12" y="8" width="1" height="1" fill="#dae4ed"/>
<rect x="11" y="9" width="1" height="1" fill="#dbe5ef"/>
<rect x="10" y="10" width="1" height="1" fill="#dbe5ef"/>
<rect x="9" y="11" width="1" height="1" fill="#dbe5ee"/>
<rect x="8" y="12" width="1" height="1" fill="#dbe5ef"/>
<rect x="7" y="13" width="1" height="1" fill="#dbe5ef"/>
<rect x="6" y="14" width="1" height="1" fill="#dce6f2"/>
<rect x="5" y="15" width="1" height="1" fill="#dbe5ef"/>
<rect x="4" y="16" width="1" height="1" fill="#3b4449"/>
<rect x="0" y="13" width="1" height="1" fill="#e1e1e1"/>
<rect x="1" y="14" width="1" height="1" fill="#383f47"/>
<rect x="3" y="16" width="1" height="1" fill="#3a4147"/>
<rect x="16" y="5" width="1" height="1" fill="#dbe5ef"/>
<rect x="15" y="6" width="1" height="1" fill="#dbe5f1"/>
<rect x="15" y="4" width="1" height="1" fill="#dbe5ef"/>
<rect x="14" y="7" width="1" height="1" fill="#171b1f"/>
<rect x="14" y="3" width="1" height="1" fill="#3b4449"/>
<rect x="13" y="8" width="1" height="1" fill="#dae3ee"/>
<rect x="12" y="9" width="1" height="1" fill="#dce4ef"/>
<rect x="11" y="10" width="1" height="1" fill="#dbe5ef"/>
<rect x="10" y="11" width="1" height="1" fill="#dbe5ef"/>
<rect x="9" y="12" width="1" height="1" fill="#dbe5ef"/>
<rect x="8" y="13" width="1" height="1" fill="#dce5ef"/>
<rect x="7" y="14" width="1" height="1" fill="#dbe5ef"/>
<rect x="6" y="15" width="1" height="1" fill="#dbe5ee"/>
<rect x="5" y="16" width="1" height="1" fill="#dbe4f0"/>
<rect x="17" y="5" width="1" height="1" fill="#dbe5ef"/>
<rect x="16" y="6" width="1" height="1" fill="#dbe5ee"/>
<rect x="16" y="4" width="1" height="1" fill="#dbe5ef"/>
<rect x="15" y="7" width="1" height="1" fill="#dbe5f0"/>
<rect x="15" y="3" width="1" height="1" fill="#dde5f0"/>
<rect x="14" y="8" width="1" height="1" fill="#d9e3ec"/>
<rect x="13" y="9" width="1" height="1" fill="#dbe5ef"/>
<rect x="12" y="10" width="1" height="1" fill="#dbe5ef"/>
<rect x="11" y="11" width="1" height="1" fill="#dce4ef"/>
<rect x="10" y="12" width="1" height="1" fill="#dce4ef"/>
<rect x="9" y="13" width="1" height="1" fill="#dbe4ee"/>
<rect x="8" y="14" width="1" height="1" fill="#dbe5ef"/>
<rect x="7" y="15" width="1" height="1" fill="#dce4ef"/>
<rect x="6" y="16" width="1" height="1" fill="#dae4ee"/>
<rect x="5" y="17" width="1" height="1" fill="#394046"/>
<rect x="18" y="5" width="1" height="1" fill="#d9e6ef"/>
<rect x="17" y="6" width="1" height="1" fill="#dbe5ef"/>
<rect x="16" y="7" width="1" height="1" fill="#dbe5ef"/>
<rect x="16" y="3" width="1" height="1" fill="#dce4ef"/>
<rect x="15" y="8" width="1" height="1" fill="#dbe5ef"/>
<rect x="15" y="2" width="1" height="1" fill="#3c4647"/>
<rect x="14" y="9" width="1" height="1" fill="#dbe5ef"/>
<rect x="13" y="10" width="1" height="1" fill="#dbe5ef"/>
<rect x="12" y="11" width="1" height="1" fill="#dae4ee"/>
<rect x="11" y="12" width="1" height="1" fill="#dae4f0"/>
<rect x="10" y="13" width="1" height="1" fill="#e7f1f8"/>
<rect x="9" y="14" width="1" height="1" fill="#dae3ee"/>
<rect x="8" y="15" width="1" height="1" fill="#dce4ef"/>
<rect x="7" y="16" width="1" height="1" fill="#dae4ee"/>
<rect x="6" y="17" width="1" height="1" fill="#3a4147"/>
<rect x="5" y="18" width="1" height="1" fill="#3b4049"/>
<rect x="19" y="5" width="1" height="1" fill="#dbe5ef"/>
<rect x="18" y="6" width="1" height="1" fill="#dbe5ef"/>
<rect x="17" y="7" width="1" height="1" fill="#dbe5ee"/>
<rect x="16" y="8" width="1" height="1" fill="#dce6f0"/>
<rect x="16" y="2" width="1" height="1" fill="#3a4446"/>
<rect x="15" y="9" width="1" height="1" fill="#dbe5ef"/>
<rect x="14" y="10" width="1" height="1" fill="#dce4ef"/>
<rect x="13" y="11" width="1" height="1" fill="#dce4ef"/>
<rect x="12" y="12" width="1" height="1" fill="#14191c"/>
<rect x="11" y="13" width="1" height="1" fill="#e8f2f9"/>
<rect x="10" y="14" width="1" height="1" fill="#dae2ed"/>
<rect x="9" y="15" width="1" height="1" fill="#dce6ef"/>
<rect x="8" y="16" width="1" height="1" fill="#d9e3ed"/>
<rect x="7" y="17" width="1" height="1" fill="#3a4147"/>
<rect x="6" y="18" width="1" height="1" fill="#3b424a"/>
<rect x="5" y="19" width="1" height="1" fill="#3a4147"/>
<rect x="19" y="6" width="1" height="1" fill="#dae5ef"/>
<rect x="18" y="7" width="1" height="1" fill="#dce6ef"/>
<rect x="17" y="8" width="1" height="1" fill="#dbe3ee"/>
<rect x="16" y="9" width="1" height="1" fill="#dbe5ef"/>
<rect x="16" y="1" width="1" height="1" fill="#b9babc"/>
<rect x="15" y="10" width="1" height="1" fill="#dbe5ef"/>
<rect x="14" y="11" width="1" height="1" fill="#dce4ef"/>
<rect x="13" y="12" width="1" height="1" fill="#a9b0b8"/>
<rect x="12" y="13" width="1" height="1" fill="#080d11"/>
<rect x="11" y="14" width="1" height="1" fill="#dae4ed"/>
<rect x="10" y="15" width="1" height="1" fill="#dce6f0"/>
<rect x="9" y="16" width="1" height="1" fill="#dae4ee"/>
<rect x="8" y="17" width="1" height="1" fill="#394046"/>
<rect x="7" y="18" width="1" height="1" fill="#3a4147"/>
<rect x="6" y="19" width="1" height="1" fill="#e0e9f4"/>
<rect x="5" y="20" width="1" height="1" fill="#3a4149"/>
<rect x="19" y="7" width="1" height="1" fill="#dbe5ef"/>
<rect x="18" y="8" width="1" height="1" fill="#dce4ef"/>
<rect x="17" y="9" width="1" height="1" fill="#dce4ef"/>
<rect x="16" y="10" width="1" height="1" fill="#dae6ee"/>
<rect x="17" y="1" width="1" height="1" fill="#4a4d51"/>
<rect x="15" y="11" width="1" height="1" fill="#dbe5ef"/>
<rect x="14" y="12" width="1" height="1" fill="#dbe5ef"/>
<rect x="13" y="13" width="1" height="1" fill="#afb8bd"/>
<rect x="12" y="14" width="1" height="1" fill="#dbe5ef"/>
<rect x="11" y="15" width="1" height="1" fill="#dbe5ef"/>
<rect x="10" y="16" width="1" height="1" fill="#dae4ee"/>
<rect x="9" y="17" width="1" height="1" fill="#3b4148"/>
<rect x="8" y="18" width="1" height="1" fill="#3a4046"/>
<rect x="7" y="19" width="1" height="1" fill="#dae4ee"/>
<rect x="6" y="20" width="1" height="1" fill="#9198a0"/>
<rect x="5" y="21" width="1" height="1" fill="#394046"/>
<rect x="20" y="7" width="1" height="1" fill="#dbe5ee"/>
<rect x="19" y="8" width="1" height="1" fill="#dce3ee"/>
<rect x="18" y="9" width="1" height="1" fill="#dce4ef"/>
<rect x="17" y="10" width="1" height="1" fill="#77a2c2"/>
<rect x="16" y="11" width="1" height="1" fill="#dce4ef"/>
<rect x="18" y="1" width="1" height="1" fill="#474c4f"/>
<rect x="17" y="0" width="1" height="1" fill="#3b4449"/>
<rect x="15" y="12" width="1" height="1" fill="#dbe5ef"/>
<rect x="14" y="13" width="1" height="1" fill="#e7f1f8"/>
<rect x="13" y="14" width="1" height="1" fill="#dae4ee"/>
<rect x="12" y="15" width="1" height="1" fill="#dbe5ef"/>
<rect x="11" y="16" width="1" height="1" fill="#dae4ee"/>
<rect x="10" y="17" width="1" height="1" fill="#3a4147"/>
<rect x="9" y="18" width="1" height="1" fill="#3a4147"/>
<rect x="8" y="19" width="1" height="1" fill="#dae4ee"/>
<rect x="7" y="20" width="1" height="1" fill="#929ca5"/>
<rect x="6" y="21" width="1" height="1" fill="#dfe9f3"/>
<rect x="5" y="22" width="1" height="1" fill="#3a4149"/>
<rect x="21" y="7" width="1" height="1" fill="#dae5f2"/>
<rect x="20" y="8" width="1" height="1" fill="#dce4ef"/>
<rect x="19" y="9" width="1" height="1" fill="#dce4ef"/>
<rect x="18" y="10" width="1" height="1" fill="#76a1c3"/>
<rect x="17" y="11" width="1" height="1" fill="#75a2c1"/>
<rect x="16" y="12" width="1" height="1" fill="#dce6f0"/>
<rect x="19" y="1" width="1" height="1" fill="#494d50"/>
<rect x="18" y="0" width="1" height="1" fill="#3b4449"/>
<rect x="15" y="13" width="1" height="1" fill="#dbe5ef"/>
<rect x="14" y="14" width="1" height="1" fill="#d9e3ed"/>
<rect x="13" y="15" width="1" height="1" fill="#dce6ef"/>
<rect x="12" y="16" width="1" height="1" fill="#dae4ee"/>
<rect x="11" y="17" width="1" height="1" fill="#3a4147"/>
<rect x="10" y="18" width="1" height="1" fill="#3a4149"/>
<rect x="9" y="19" width="1" height="1" fill="#d9e3ee"/>
<rect x="8" y="20" width="1" height="1" fill="#dae4ee"/>
<rect x="7" y="21" width="1" height="1" fill="#dae4f0"/>
<rect x="6" y="22" width="1" height="1" fill="#98a1a8"/>
<rect x="5" y="23" width="1" height="1" fill="#3a4147"/>
<rect x="22" y="7" width="1" height="1" fill="#3b4449"/>
<rect x="21" y="8" width="1" height="1" fill="#dce4ee"/>
<rect x="21" y="6" width="1" height="1" fill="#3c4147"/>
<rect x="20" y="9" width="1" height="1" fill="#dce4ef"/>
<rect x="19" y="10" width="1" height="1" fill="#dde6ef"/>
<rect x="18" y="11" width="1" height="1" fill="#76a1c3"/>
<rect x="17" y="12" width="1" height="1" fill="#dbe5ef"/>
<rect x="16" y="13" width="1" height="1" fill="#dbe5ef"/>
<rect x="20" y="1" width="1" height="1" fill="#676b6c"/>
<rect x="19" y="0" width="1" height="1" fill="#3c4447"/>
<rect x="15" y="14" width="1" height="1" fill="#dbe5ee"/>
<rect x="14" y="15" width="1" height="1" fill="#dbe5ef"/>
<rect x="13" y="16" width="1" height="1" fill="#dae3ee"/>
<rect x="12" y="17" width="1" height="1" fill="#3a4147"/>
<rect x="11" y="18" width="1" height="1" fill="#3a4149"/>
<rect x="10" y="19" width="1" height="1" fill="#d9e3ef"/>
<rect x="9" y="20" width="1" height="1" fill="#dae2f0"/>
<rect x="8" y="21" width="1" height="1" fill="#dae4ed"/>
<rect x="7" y="22" width="1" height="1" fill="#959ea5"/>
<rect x="6" y="23" width="1" height="1" fill="#99a2a9"/>
<rect x="5" y="24" width="1" height="1" fill="#394048"/>
<rect x="23" y="7" width="1" height="1" fill="#3b444a"/>
<rect x="22" y="8" width="1" height="1" fill="#3b4447"/>
<rect x="21" y="9" width="1" height="1" fill="#dce4ef"/>
<rect x="21" y="5" width="1" height="1" fill="#3b4449"/>
<rect x="19" y="11" width="1" height="1" fill="#dbe5ef"/>
<rect x="18" y="12" width="1" height="1" fill="#dce4ef"/>
<rect x="17" y="13" width="1" height="1" fill="#dce6ef"/>
<rect x="16" y="14" width="1" height="1" fill="#dbe5ef"/>
<rect x="20" y="0" width="1" height="1" fill="#66696c"/>
<rect x="15" y="15" width="1" height="1" fill="#dbe5ef"/>
<rect x="14" y="16" width="1" height="1" fill="#dbe3f0"/>
<rect x="13" y="17" width="1" height="1" fill="#3a4149"/>
<rect x="12" y="18" width="1" height="1" fill="#39414a"/>
<rect x="11" y="19" width="1" height="1" fill="#dae4ee"/>
<rect x="10" y="20" width="1" height="1" fill="#d9e3ef"/>
<rect x="9" y="21" width="1" height="1" fill="#dbe5ee"/>
<rect x="8" y="22" width="1" height="1" fill="#959ea6"/>
<rect x="7" y="23" width="1" height="1" fill="#969fa6"/>
<rect x="6" y="24" width="1" height="1" fill="#e0eaf4"/>
<rect x="5" y="25" width="1" height="1" fill="#394046"/>
<rect x="23" y="8" width="1" height="1" fill="#3b4449"/>
<rect x="22" y="9" width="1" height="1" fill="#3a4446"/>
<rect x="21" y="10" width="1" height="1" fill="#151b1e"/>
<rect x="21" y="4" width="1" height="1" fill="#3b4449"/>
<rect x="19" y="12" width="1" height="1" fill="#dbe5ef"/>
<rect x="18" y="13" width="1" height="1" fill="#dce6ef"/>
<rect x="17" y="14" width="1" height="1" fill="#dce3ef"/>
<rect x="16" y="15" width="1" height="1" fill="#dce4ef"/>
<rect x="15" y="16" width="1" height="1" fill="#dbe5ef"/>
<rect x="14" y="17" width="1" height="1" fill="#3a4147"/>
<rect x="13" y="18" width="1" height="1" fill="#3a4048"/>
<rect x="12" y="19" width="1" height="1" fill="#dae4ed"/>
<rect x="11" y="20" width="1" height="1" fill="#d9e3ef"/>
<rect x="10" y="21" width="1" height="1" fill="#dae4f0"/>
<rect x="9" y="22" width="1" height="1" fill="#969fa6"/>
<rect x="8" y="23" width="1" height="1" fill="#969fa5"/>
<rect x="7" y="24" width="1" height="1" fill="#d9e3ef"/>
<rect x="6" y="25" width="1" height="1" fill="#dfe9f2"/>
<rect x="5" y="26" width="1" height="1" fill="#3a4147"/>
<rect x="23" y="9" width="1" height="1" fill="#3c4449"/>
<rect x="22" y="10" width="1" height="1" fill="#3a4147"/>
<rect x="21" y="11" width="1" height="1" fill="#161b1f"/>
<rect x="21" y="3" width="1" height="1" fill="#3b4449"/>
<rect x="20" y="12" width="1" height="1" fill="#dbe5ef"/>
<rect x="19" y="13" width="1" height="1" fill="#dee8f2"/>
<rect x="18" y="14" width="1" height="1" fill="#dae4ee"/>
<rect x="17" y="15" width="1" height="1" fill="#dbe5ee"/>
<rect x="16" y="16" width="1" height="1" fill="#dae4ee"/>
<rect x="15" y="17" width="1" height="1" fill="#3b4249"/>
<rect x="14" y="18" width="1" height="1" fill="#3a4148"/>
<rect x="13" y="19" width="1" height="1" fill="#dce4ef"/>
<rect x="12" y="20" width="1" height="1" fill="#0a1015"/>
<rect x="11" y="21" width="1" height="1" fill="#d9e3ec"/>
<rect x="10" y="22" width="1" height="1" fill="#3b4248"/>
<rect x="9" y="23" width="1" height="1" fill="#979ea5"/>
<rect x="8" y="24" width="1" height="1" fill="#d9e3ee"/>
<rect x="7" y="25" width="1" height="1" fill="#d7e1eb"/>
<rect x="6" y="26" width="1" height="1" fill="#3b4248"/>
<rect x="23" y="10" width="1" height="1" fill="#3a4147"/>
<rect x="22" y="11" width="1" height="1" fill="#3a4147"/>
<rect x="21" y="12" width="1" height="1" fill="#dbe5ef"/>
<rect x="21" y="2" width="1" height="1" fill="#3b454a"/>
<rect x="20" y="13" width="1" height="1" fill="#dee6f1"/>
<rect x="19" y="14" width="1" height="1" fill="#969fa6"/>
<rect x="18" y="15" width="1" height="1" fill="#dae4ee"/>
<rect x="17" y="16" width="1" height="1" fill="#dae4ee"/>
<rect x="16" y="17" width="1" height="1" fill="#394046"/>
<rect x="15" y="18" width="1" height="1" fill="#3a4149"/>
<rect x="14" y="19" width="1" height="1" fill="#dae4ee"/>
<rect x="13" y="20" width="1" height="1" fill="#91989f"/>
<rect x="12" y="21" width="1" height="1" fill="#171c1f"/>
<rect x="11" y="22" width="1" height="1" fill="#3c434b"/>
<rect x="10" y="23" width="1" height="1" fill="#393e47"/>
<rect x="9" y="24" width="1" height="1" fill="#d9e3ef"/>
<rect x="8" y="25" width="1" height="1" fill="#d8e2ec"/>
<rect x="7" y="26" width="1" height="1" fill="#3b4248"/>
<rect x="23" y="11" width="1" height="1" fill="#3a4147"/>
<rect x="22" y="12" width="1" height="1" fill="#3b4446"/>
<rect x="21" y="13" width="1" height="1" fill="#dfe8f2"/>
<rect x="20" y="14" width="1" height="1" fill="#959ea5"/>
<rect x="19" y="15" width="1" height="1" fill="#dae4ee"/>
<rect x="18" y="16" width="1" height="1" fill="#dbe2f0"/>
<rect x="17" y="17" width="1" height="1" fill="#394146"/>
<rect x="16" y="18" width="1" height="1" fill="#394048"/>
<rect x="15" y="19" width="1" height="1" fill="#dae4ee"/>
<rect x="14" y="20" width="1" height="1" fill="#dae4ee"/>
<rect x="13" y="21" width="1" height="1" fill="#969da4"/>
<rect x="11" y="23" width="1" height="1" fill="#3c4248"/>
<rect x="10" y="24" width="1" height="1" fill="#3a4245"/>
<rect x="9" y="25" width="1" height="1" fill="#d9e3ed"/>
<rect x="8" y="26" width="1" height="1" fill="#3b4249"/>
<rect x="23" y="12" width="1" height="1" fill="#3b4146"/>
<rect x="22" y="13" width="1" height="1" fill="#3a4148"/>
<rect x="21" y="14" width="1" height="1" fill="#959ea6"/>
<rect x="19" y="16" width="1" height="1" fill="#d9e3ef"/>
<rect x="18" y="17" width="1" height="1" fill="#394046"/>
<rect x="17" y="18" width="1" height="1" fill="#3a4149"/>
<rect x="16" y="19" width="1" height="1" fill="#dae4ee"/>
<rect x="15" y="20" width="1" height="1" fill="#dae4ee"/>
<rect x="14" y="21" width="1" height="1" fill="#dae3ed"/>
<rect x="13" y="22" width="1" height="1" fill="#595d60"/>
<rect x="11" y="24" width="1" height="1" fill="#394144"/>
<rect x="10" y="25" width="1" height="1" fill="#3a4248"/>
<rect x="9" y="26" width="1" height="1" fill="#3c4348"/>
<rect x="23" y="13" width="1" height="1" fill="#3a4147"/>
<rect x="22" y="14" width="1" height="1" fill="#3a4047"/>
<rect x="21" y="15" width="1" height="1" fill="#394446"/>
<rect x="19" y="17" width="1" height="1" fill="#3a4149"/>
<rect x="18" y="18" width="1" height="1" fill="#3a4147"/>
<rect x="17" y="19" width="1" height="1" fill="#dae4ed"/>
<rect x="16" y="20" width="1" height="1" fill="#dae4ee"/>
<rect x="15" y="21" width="1" height="1" fill="#dae4ee"/>
<rect x="14" y="22" width="1" height="1" fill="#394247"/>
<rect x="13" y="23" width="1" height="1" fill="#75787d"/>
<rect x="11" y="25" width="1" height="1" fill="#394048"/>
<rect x="23" y="14" width="1" height="1" fill="#3b4347"/>
<rect x="21" y="16" width="1" height="1" fill="#3b4145"/>
<rect x="20" y="17" width="1" height="1" fill="#4b4f52"/>
<rect x="19" y="18" width="1" height="1" fill="#3a4147"/>
<rect x="18" y="19" width="1" height="1" fill="#dbe5ef"/>
<rect x="17" y="20" width="1" height="1" fill="#929ba4"/>
<rect x="16" y="21" width="1" height="1" fill="#dbe5ef"/>
<rect x="15" y="22" width="1" height="1" fill="#999ea4"/>
<rect x="14" y="23" width="1" height="1" fill="#3b4248"/>
<rect x="13" y="24" width="1" height="1" fill="#6a6e71"/>
<rect x="20" y="18" width="1" height="1" fill="#53585b"/>
<rect x="19" y="19" width="1" height="1" fill="#3a4147"/>
<rect x="18" y="20" width="1" height="1" fill="#8f99a3"/>
<rect x="17" y="21" width="1" height="1" fill="#d6e4ef"/>
<rect x="16" y="22" width="1" height="1" fill="#979ea4"/>
<rect x="15" y="23" width="1" height="1" fill="#969fa7"/>
<rect x="14" y="24" width="1" height="1" fill="#3a4147"/>
<rect x="13" y="25" width="1" height="1" fill="#6d7275"/>
<rect x="20" y="19" width="1" height="1" fill="#4d5055"/>
<rect x="19" y="20" width="1" height="1" fill="#3a4147"/>
<rect x="18" y="21" width="1" height="1" fill="#dae4ee"/>
<rect x="17" y="22" width="1" height="1" fill="#979ea6"/>
<rect x="16" y="23" width="1" height="1" fill="#969da3"/>
<rect x="15" y="24" width="1" height="1" fill="#d9e3ef"/>
<rect x="14" y="25" width="1" height="1" fill="#394046"/>
<rect x="20" y="20" width="1" height="1" fill="#3a4145"/>
<rect x="19" y="21" width="1" height="1" fill="#3a4147"/>
<rect x="18" y="22" width="1" height="1" fill="#969fa4"/>
<rect x="17" y="23" width="1" height="1" fill="#979ea4"/>
<rect x="16" y="24" width="1" height="1" fill="#d9e3ef"/>
<rect x="15" y="25" width="1" height="1" fill="#d9e1ec"/>
<rect x="21" y="20" width="1" height="1" fill="#2c3136"/>
<rect x="20" y="21" width="1" height="1" fill="#3a4147"/>
<rect x="19" y="22" width="1" height="1" fill="#3a4147"/>
<rect x="18" y="23" width="1" height="1" fill="#979ea4"/>
<rect x="17" y="24" width="1" height="1" fill="#d9e3ef"/>
<rect x="16" y="25" width="1" height="1" fill="#d9e3ed"/>
<rect x="15" y="26" width="1" height="1" fill="#3b4247"/>
<rect x="22" y="20" width="1" height="1" fill="#e7f0f9"/>
<rect x="21" y="21" width="1" height="1" fill="#394247"/>
<rect x="20" y="22" width="1" height="1" fill="#474f58"/>
<rect x="19" y="23" width="1" height="1" fill="#3a4149"/>
<rect x="18" y="24" width="1" height="1" fill="#d9e3ef"/>
<rect x="17" y="25" width="1" height="1" fill="#dae2ed"/>
<rect x="16" y="26" width="1" height="1" fill="#3b4248"/>
<rect x="23" y="20" width="1" height="1" fill="#e3ebf7"/>
<rect x="22" y="21" width="1" height="1" fill="#dae4ee"/>
<rect x="22" y="19" width="1" height="1" fill="#3b4248"/>
<rect x="21" y="22" width="1" height="1" fill="#dae2ef"/>
<rect x="20" y="23" width="1" height="1" fill="#494e54"/>
<rect x="19" y="24" width="1" height="1" fill="#3a4147"/>
<rect x="18" y="25" width="1" height="1" fill="#d9e1ec"/>
<rect x="17" y="26" width="1" height="1" fill="#3b4248"/>
<rect x="24" y="20" width="1" height="1" fill="#dee6f0"/>
<rect x="23" y="21" width="1" height="1" fill="#d9e3ef"/>
<rect x="23" y="19" width="1" height="1" fill="#3b4248"/>
<rect x="22" y="22" width="1" height="1" fill="#d8e2ed"/>
<rect x="21" y="23" width="1" height="1" fill="#d9e3ef"/>
<rect x="20" y="24" width="1" height="1" fill="#3a4149"/>
<rect x="19" y="25" width="1" height="1" fill="#3b4248"/>
<rect x="18" y="26" width="1" height="1" fill="#3a4147"/>
<rect x="25" y="20" width="1" height="1" fill="#dde5f0"/>
<rect x="24" y="21" width="1" height="1" fill="#dae4ee"/>
<rect x="24" y="19" width="1" height="1" fill="#949da4"/>
<rect x="23" y="22" width="1" height="1" fill="#d9e3ef"/>
<rect x="22" y="23" width="1" height="1" fill="#dae4ed"/>
<rect x="21" y="24" width="1" height="1" fill="#3a4147"/>
<rect x="20" y="25" width="1" height="1" fill="#394046"/>
<rect x="19" y="26" width="1" height="1" fill="#3b4248"/>
<rect x="26" y="20" width="1" height="1" fill="#2f3840"/>
<rect x="25" y="21" width="1" height="1" fill="#d9e4f0"/>
<rect x="25" y="19" width="1" height="1" fill="#969fa6"/>
<rect x="24" y="22" width="1" height="1" fill="#3b4346"/>
<rect x="24" y="18" width="1" height="1" fill="#3b4248"/>
<rect x="23" y="23" width="1" height="1" fill="#dae2ed"/>
<rect x="22" y="24" width="1" height="1" fill="#3a4147"/>
<rect x="21" y="25" width="1" height="1" fill="#394046"/>
<rect x="20" y="26" width="1" height="1" fill="#4e5256"/>
<rect x="27" y="20" width="1" height="1" fill="#323a41"/>
<rect x="26" y="21" width="1" height="1" fill="#3a4147"/>
<rect x="26" y="19" width="1" height="1" fill="#dae3ee"/>
<rect x="25" y="22" width="1" height="1" fill="#3d4248"/>
<rect x="25" y="18" width="1" height="1" fill="#3d4247"/>
<rect x="24" y="23" width="1" height="1" fill="#3a4245"/>
<rect x="24" y="17" width="1" height="1" fill="#3c434b"/>
<rect x="23" y="24" width="1" height="1" fill="#3b4147"/>
<rect x="22" y="25" width="1" height="1" fill="#3a4147"/>
<rect x="27" y="21" width="1" height="1" fill="#404549"/>
<rect x="27" y="19" width="1" height="1" fill="#d7e1eb"/>
<rect x="26" y="18" width="1" height="1" fill="#959ea5"/>
<rect x="25" y="23" width="1" height="1" fill="#3b4547"/>
<rect x="25" y="17" width="1" height="1" fill="#3b424a"/>
<rect x="23" y="25" width="1" height="1" fill="#3b4248"/>
<rect x="28" y="19" width="1" height="1" fill="#3b4547"/>
<rect x="27" y="18" width="1" height="1" fill="#949da4"/>
<rect x="26" y="17" width="1" height="1" fill="#959fa5"/>
<rect x="25" y="24" width="1" height="1" fill="#e2e2e2"/>
<rect x="28" y="18" width="1" height="1" fill="#969ea5"/>
<rect x="27" y="17" width="1" height="1" fill="#959fa5"/>
<rect x="26" y="16" width="1" height="1" fill="#3d4248"/>
<rect x="29" y="18" width="1" height="1" fill="#3a4043"/>
<rect x="28" y="17" width="1" height="1" fill="#959ea5"/>
<rect x="27" y="16" width="1" height="1" fill="#3e4649"/>
<rect x="26" y="15" width="1" height="1" fill="#3b4345"/>
<rect x="30" y="18" width="1" height="1" fill="#3b4147"/>
<rect x="29" y="17" width="1" height="1" fill="#3a4446"/>
<rect x="28" y="16" width="1" height="1" fill="#959ea5"/>
<rect x="27" y="15" width="1" height="1" fill="#3e454b"/>
<rect x="25" y="15" width="1" height="1" fill="#efefee"/>
<rect x="30" y="17" width="1" height="1" fill="#3a4147"/>
<rect x="29" y="16" width="1" height="1" fill="#394144"/>
<rect x="28" y="15" width="1" height="1" fill="#959ea5"/>
<rect x="25" y="14" width="1" height="1" fill="#e5e3e4"/>
<rect x="30" y="16" width="1" height="1" fill="#3b424a"/>
<rect x="29" y="15" width="1" height="1" fill="#394047"/>
<rect x="28" y="14" width="1" height="1" fill="#3b4248"/>
<rect x="25" y="13" width="1" height="1" fill="#e6e6e6"/>
<rect x="30" y="15" width="1" height="1" fill="#3b4248"/>
<rect x="25" y="12" width="1" height="1" fill="#f1f1f1"/>
</svg>